ffmpeg version 2024-03-11-git-3d1860ec8d-full_build-www.gyan.dev Copyright (c) 2000-2024 the FFmpeg developers
  built with gcc 13.2.0 (Rev5, Built by MSYS2 project)
  configuration: --enable-gpl --enable-version3 --enable-static --pkg-config=pkgconf --disable-w32threads --disable-autodetect --enable-fontconfig --enable-iconv --enable-gnutls --enable-libxml2 --enable-gmp --enable-bzlib --enable-lzma --enable-libsnappy --enable-zlib --enable-librist --enable-libsrt --enable-libssh --enable-libzmq --enable-avisynth --enable-libbluray --enable-libcaca --enable-sdl2 --enable-libaribb24 --enable-libaribcaption --enable-libdav1d --enable-libdavs2 --enable-libuavs3d --enable-libzvbi --enable-librav1e --enable-libsvtav1 --enable-libwebp --enable-libx264 --enable-libx265 --enable-libxavs2 --enable-libxvid --enable-libaom --enable-libjxl --enable-libopenjpeg --enable-libvpx --enable-mediafoundation --enable-libass --enable-frei0r --enable-libfreetype --enable-libfribidi --enable-libharfbuzz --enable-liblensfun --enable-libvidstab --enable-libvmaf --enable-libzimg --enable-amf --enable-cuda-llvm --enable-cuvid --enable-ffnvcodec --enable-nvdec --enable-nvenc --enable-dxva2 --enable-d3d11va --enable-libvpl --enable-libshaderc --enable-vulkan --enable-libplacebo --enable-opencl --enable-libcdio --enable-libgme --enable-libmodplug --enable-libopenmpt --enable-libopencore-amrwb --enable-libmp3lame --enable-libshine --enable-libtheora --enable-libtwolame --enable-libvo-amrwbenc --enable-libcodec2 --enable-libilbc --enable-libgsm --enable-libopencore-amrnb --enable-libopus --enable-libspeex --enable-libvorbis --enable-ladspa --enable-libbs2b --enable-libflite --enable-libmysofa --enable-librubberband --enable-libsoxr --enable-chromaprint
  libavutil      59.  1.100 / 59.  1.100
  libavcodec     61.  1.100 / 61.  1.100
  libavformat    61.  0.100 / 61.  0.100
  libavdevice    61.  0.100 / 61.  0.100
  libavfilter    10.  0.100 / 10.  0.100
  libswscale      8.  0.100 /  8.  0.100
  libswresample   5.  0.100 /  5.  0.100
  libpostproc    58.  0.100 / 58.  0.100
Input #0, mp3, from 'C:\Users\a1863615\int\Interviews\patient_x\Audio_Participant_16012024.mp3':
  Metadata:
    major_brand     : mp42
    minor_version   : 0
    compatible_brands: isommp42
    encoder         : Lavf61.0.100
  Duration: 00:20:21.91, start: 0.034531, bitrate: 48 kb/s
  Stream #0:0: Audio: mp3 (mp3float), 32000 Hz, mono, fltp, 48 kb/s
Stream mapping:
  Stream #0:0 -> #0:0 (mp3 (mp3float) -> mp3 (libmp3lame))
Press [q] to stop, [?] for help
Output #0, mp3, to 'C:\Users\a1863615\int\Interviews\patient_x\16012024_cleaned.mp3':
  Metadata:
    major_brand     : mp42
    minor_version   : 0
    compatible_brands: isommp42
    TSSE            : Lavf61.0.100
  Stream #0:0: Audio: mp3, 32000 Hz, mono, fltp
      Metadata:
        encoder         : Lavc61.1.100 libmp3lame
size=     256KiB time=00:01:01.45 bitrate=  34.1kbits/s speed= 120x    size=     512KiB time=00:01:58.33 bitrate=  35.4kbits/s speed= 111x    size=    1024KiB time=00:03:02.73 bitrate=  45.9kbits/s speed= 114x    size=    1280KiB time=00:04:08.61 bitrate=  42.2kbits/s speed= 117x    size=    1792KiB time=00:05:06.10 bitrate=  48.0kbits/s speed= 116x    size=    2048KiB time=00:06:12.96 bitrate=  45.0kbits/s speed= 118x    size=    2560KiB time=00:07:17.11 bitrate=  48.0kbits/s speed= 119x    size=    2816KiB time=00:08:23.78 bitrate=  45.8kbits/s speed= 120x    size=    3328KiB time=00:09:30.38 bitrate=  47.8kbits/s speed= 121x    size=    3584KiB time=00:10:34.50 bitrate=  46.3kbits/s speed= 122x    size=    4096KiB time=00:11:45.24 bitrate=  47.6kbits/s speed= 123x    size=    4352KiB time=00:12:52.23 bitrate=  46.2kbits/s speed= 123x    size=    4864KiB time=00:13:57.97 bitrate=  47.6kbits/s speed= 123x    size=    5120KiB time=00:15:05.86 bitrate=  46.3kbits/s speed= 124x    size=    5632KiB time=00:16:14.52 bitrate=  47.3kbits/s speed= 124x    size=    5888KiB time=00:17:23.92 bitrate=  46.2kbits/s speed= 125x    size=    6400KiB time=00:18:25.52 bitrate=  47.4kbits/s speed= 125x    size=    6656KiB time=00:19:35.94 bitrate=  46.4kbits/s speed= 125x    [out#0/mp3 @ 000002a905a92880] video:0KiB audio:7160KiB subtitle:0KiB other streams:0KiB global headers:0KiB muxing overhead: 0.004324%
size=    7160KiB time=00:20:21.85 bitrate=  48.0kbits/s speed= 125x    
